<svg width="89" height="31" viewBox="0 0 89 31" fill="none" xmlns="http://www.w3.org/2000/svg">
<path d="M28.8848 21.8496H27.4961C26.793 21.8496 26.1719 21.7559 25.6328 21.5684C25.1055 21.3691 24.5664 21.0586 24.0156 20.6367C23.5234 21.082 23.084 21.3809 22.6973 21.5332C22.1465 21.7441 21.3438 21.8496 20.2891 21.8496H18.127C18.127 22.9277 17.8691 23.9766 17.3535 24.9961C16.6855 26.3203 15.666 27.3691 14.2949 28.1426C12.5723 29.1152 10.416 29.6016 7.82617 29.6016C5.48242 29.6016 3.68945 29.1914 2.44727 28.3711C1.08789 27.4688 0.408203 26.0859 0.408203 24.2227C0.408203 23.2148 0.53125 22.1953 0.777344 21.1641C1.02344 20.1328 1.35742 19.0957 1.7793 18.0527C2.03711 17.4199 2.48242 16.4473 3.11523 15.1348L3.81836 15.4512C2.99805 17.1387 2.45312 18.4688 2.18359 19.4414C1.92578 20.4141 1.79688 21.3047 1.79688 22.1133C1.79688 23.5664 2.3125 24.6738 3.34375 25.4355C4.38672 26.1855 5.86914 26.5605 7.79102 26.5605C10.041 26.5605 12.0508 26.168 13.8203 25.3828C16.0234 24.4102 17.125 23.0508 17.125 21.3047C17.125 20.1328 16.9082 19.0195 16.4746 17.9648C16.1348 17.1328 15.6543 16.3359 15.0332 15.5742L16.4922 11.9707C17.0781 12.9316 17.4766 13.7812 17.6875 14.5195C17.9805 15.5625 18.127 16.9863 18.127 18.791H20.2891C21.4023 18.791 22.1934 18.6211 22.6621 18.2812C23.0723 17.9883 23.2773 17.5371 23.2773 16.9277C23.2773 16.5879 23.2539 16.248 23.207 15.9082C23.1719 15.5566 23.1133 15.1758 23.0312 14.7656L23.7344 13.7109L24.0156 15.416C24.2734 16.5645 24.6191 17.3906 25.0527 17.8945C25.5332 18.457 26.2129 18.7383 27.0918 18.7383C27.3613 18.7383 27.5664 18.6562 27.707 18.4922C27.8594 18.3164 27.9355 18.0996 27.9355 17.8418C27.9355 17.2559 27.7539 16.6289 27.3906 15.9609C27.1211 15.4688 26.7637 14.9766 26.3184 14.4844L27.4961 12.5684C28.0469 13.4707 28.3809 14.0859 28.498 14.4141C28.7559 15.1523 28.8848 16.2246 28.8848 17.6309V21.8496ZM24.0332 2.75977L22.6797 5.32617L19.8672 3.81445L21.168 1.24805L24.0332 2.75977ZM27.4961 5.88867L26.125 8.41992L23.2773 6.9082L24.5957 4.39453L27.4961 5.88867ZM23.4531 7.4707L22.1172 10.0195L19.2695 8.54297L20.5703 5.99414L23.4531 7.4707ZM34.5262 17.3672C34.5262 18.3047 34.3563 19.2129 34.0164 20.0918C33.8406 20.5605 33.4598 21.3047 32.8738 22.3242L32.5574 22.1484C32.5926 21.8086 32.6219 21.416 32.6453 20.9707C32.6805 20.5254 32.698 20.2266 32.698 20.0742C32.698 18.8555 32.5984 17.1562 32.3992 14.9766C32.2117 12.7852 31.9832 10.5 31.7137 8.12109C31.5496 6.67969 31.368 5.20898 31.1688 3.70898C31.4031 3.19336 31.6668 2.63672 31.9598 2.03906C32.2645 1.44141 32.5516 0.878906 32.8211 0.351562C33.0086 1.6875 33.243 3.51562 33.5242 5.83594C33.8172 8.15625 34.0457 10.248 34.2098 12.1113C34.4207 14.4316 34.5262 16.1836 34.5262 17.3672ZM51.2945 20.7949C51.2945 22.7285 50.5797 24.6504 49.15 26.5605C47.5563 28.6934 45.7164 29.7598 43.6305 29.7598C42.857 29.7598 42.0602 29.6719 41.2398 29.4961C40.6422 29.3672 39.8629 29.1445 38.902 28.8281C38.1402 28.5586 37.3785 28.2949 36.6168 28.0371L36.9156 27.4219C37.5719 27.5742 38.2574 27.7324 38.9723 27.8965C39.6988 28.0723 40.3492 28.1602 40.9234 28.1602C42.3531 28.1602 43.7066 27.7969 44.984 27.0703C45.9801 26.4961 46.9762 25.6641 47.9723 24.5742C48.4762 24.0234 49.191 23.127 50.1168 21.8848C48.5348 21.8848 47.3512 21.6328 46.566 21.1289C45.6754 20.5547 45.2301 19.6113 45.2301 18.2988C45.2301 17.0918 45.5113 15.9727 46.0738 14.9414C46.7301 13.7461 47.5621 13.1484 48.5699 13.1484C49.5895 13.1484 50.3219 13.7402 50.7672 14.9238C51.1188 15.8496 51.2945 17.1387 51.2945 18.791V20.7949ZM50.1871 18.8789C49.9293 17.7539 49.6188 16.9746 49.2555 16.541C48.9391 16.166 48.5523 15.9785 48.0953 15.9785C47.7672 15.9785 47.4801 16.0898 47.234 16.3125C46.9996 16.5234 46.8824 16.793 46.8824 17.1211C46.8824 17.6953 47.1402 18.1348 47.6559 18.4395C48.1715 18.7324 49.0152 18.8789 50.1871 18.8789ZM68.6078 21.8496C68.6078 23.1387 68.057 24.4746 66.9555 25.8574C65.9945 27.0762 64.7992 28.125 63.3695 29.0039C62.0102 29.8477 60.891 30.2695 60.0121 30.2695C59.2035 30.2695 58.3305 30.1523 57.393 29.918C56.6781 29.7422 55.8227 29.4668 54.8266 29.0918C53.9828 28.7754 53.1449 28.459 52.3129 28.1426L52.6117 27.4395C53.3852 27.5918 54.1879 27.7441 55.0199 27.8965C55.8637 28.0605 56.6254 28.1426 57.3051 28.1426C58.8051 28.1426 60.3695 27.6621 61.9984 26.7012C63.475 25.8223 64.7348 24.7148 65.7777 23.3789C66.8207 22.0312 67.3422 20.8184 67.3422 19.7402C67.3422 18.8145 67.0727 17.8418 66.5336 16.8223C66.1 16.002 65.4906 15.1582 64.7055 14.291L65.7074 11.5312C66.6684 12.4219 67.3773 13.3125 67.8344 14.2031C68.35 15.2109 68.6078 16.3359 68.6078 17.5781V21.8496ZM82.5109 21.8496H80.6828C79.8977 21.8496 79.0129 21.6738 78.0285 21.3223C76.8918 20.9121 75.8898 20.3496 75.0227 19.6348C74.343 20.4668 73.6457 21.0469 72.9309 21.375C72.2277 21.6914 71.1965 21.8496 69.8371 21.8496H67.0949V18.791H69.7844C70.8508 18.791 71.8 18.5215 72.632 17.9824C73.2766 17.5605 73.8625 16.9688 74.3898 16.207C75.1047 15.1758 75.9836 14.2793 77.0266 13.5176C77.9641 12.8379 78.8254 12.4043 79.6105 12.2168C80.4191 13.4473 81.0637 14.5547 81.5441 15.5391C82.1887 16.875 82.5109 17.959 82.5109 18.791V21.8496ZM80.4895 18.3867C80.3371 17.707 80.1027 17.0391 79.7863 16.3828C79.5168 15.832 79.1594 15.2637 78.7141 14.6777C78.1516 14.8184 77.677 15.082 77.2902 15.4688C77.0324 15.7148 76.7277 16.1309 76.3762 16.7168C76.798 17.1738 77.3898 17.584 78.1516 17.9473C78.925 18.3105 79.6516 18.5332 80.3313 18.6152L80.4895 18.3867ZM88.1699 17.3672C88.1699 18.3047 88 19.2129 87.6602 20.0918C87.4844 20.5605 87.1035 21.3047 86.5176 22.3242L86.2012 22.1484C86.2363 21.8086 86.2656 21.416 86.2891 20.9707C86.3242 20.5254 86.3418 20.2266 86.3418 20.0742C86.3418 18.8555 86.2422 17.1562 86.043 14.9766C85.8555 12.7852 85.627 10.5 85.3574 8.12109C85.1934 6.67969 85.0117 5.20898 84.8125 3.70898C85.0469 3.19336 85.3105 2.63672 85.6035 2.03906C85.9082 1.44141 86.1953 0.878906 86.4648 0.351562C86.6523 1.6875 86.8867 3.51562 87.168 5.83594C87.4609 8.15625 87.6895 10.248 87.8535 12.1113C88.0645 14.4316 88.1699 16.1836 88.1699 17.3672Z" fill="#222222"/>
</svg>
